<svg width="500" height="500" viewBox="0 0 500 500" fill="none" xmlns="http://www.w3.org/2000/svg">
<g clip-path="url(#clip0_4_5)">
<mask id="mask0_4_5" style="mask-type:alpha" maskUnits="userSpaceOnUse" x="34" y="125" width="442" height="221">
<path d="M172.426 289.45C170.092 291.083 167.059 292.6 163.326 294C159.592 295.167 155.276 295.75 150.376 295.75C144.309 295.75 139.059 294.933 134.626 293.3C130.426 291.667 127.626 288.983 126.226 285.25C116.892 261.683 108.959 241.5 102.426 224.7C95.8925 207.667 90.6425 193.2 86.6758 181.3H84.9258C84.2258 196.933 83.5258 211.4 82.8258 224.7C82.3591 237.767 81.8924 250.483 81.4258 262.85C80.9591 274.983 80.3758 287.583 79.6758 300.65C79.2091 313.483 78.5091 327.367 77.5758 342.3C75.4758 343 72.5591 343.7 68.8258 344.4C65.3258 345.1 61.5924 345.45 57.6258 345.45C50.1591 345.45 44.3258 344.05 40.1258 341.25C36.1591 338.45 34.1758 334.017 34.1758 327.95C34.1758 323.517 34.4091 316.283 34.8758 306.25C35.5758 295.983 36.2758 284.083 36.9758 270.55C37.9091 256.783 38.8424 242.2 39.7758 226.8C40.7091 211.4 41.6424 196.233 42.5758 181.3C43.7424 166.367 44.7924 152.717 45.7258 140.35C47.5924 138.017 50.9758 135.683 55.8758 133.35C61.0091 130.783 67.5425 129.5 75.4758 129.5C84.5758 129.5 91.8091 131.017 97.1758 134.05C102.776 136.85 106.859 141.633 109.426 148.4C113.859 157.967 118.292 168.817 122.726 180.95C127.392 192.85 131.942 204.867 136.376 217C141.042 229.133 145.359 240.217 149.326 250.25H150.726C158.659 228.317 166.476 207.083 174.176 186.55C182.109 165.783 188.876 148.4 194.476 134.4C197.509 133 201.242 131.833 205.676 130.9C210.109 129.967 214.659 129.5 219.326 129.5C227.959 129.5 234.842 130.783 239.976 133.35C245.342 135.917 248.492 139.767 249.426 144.9C250.359 149.1 251.409 155.983 252.576 165.55C253.742 175.117 254.909 186.317 256.076 199.15C257.242 211.75 258.292 224.933 259.226 238.7C260.392 252.467 261.442 266 262.376 279.3C263.542 292.367 264.476 304.267 265.176 315C265.876 325.5 266.342 333.783 266.576 339.85C263.542 341.717 260.276 343.117 256.776 344.05C253.509 344.983 249.426 345.45 244.526 345.45C238.459 345.45 233.092 344.283 228.426 341.95C223.992 339.383 221.542 334.717 221.076 327.95C219.909 308.117 218.859 289.1 217.926 270.9C217.226 252.7 216.526 236.017 215.826 220.85C215.359 205.683 214.776 192.967 214.076 182.7H212.676C208.942 193.433 203.809 207.317 197.276 224.35C190.742 241.15 182.459 262.85 172.426 289.45ZM314.548 272.3V148.4C314.548 143.967 315.714 140.583 318.048 138.25C320.381 135.917 323.648 134.05 327.848 132.65C335.081 130.083 343.831 128.333 354.098 127.4C364.598 126.233 374.281 125.65 383.148 125.65C413.948 125.65 437.048 132.3 452.448 145.6C468.081 158.667 475.898 176.4 475.898 198.8C475.898 213.5 472.398 226.45 465.398 237.65C458.631 248.617 448.714 257.133 435.648 263.2C422.581 269.267 406.481 272.3 387.348 272.3H314.548ZM338.698 345.45C330.064 345.45 323.881 343.817 320.148 340.55C316.414 337.283 314.548 331.8 314.548 324.1V252H360.048V342.65C357.948 343.117 354.914 343.7 350.948 344.4C347.214 345.1 343.131 345.45 338.698 345.45ZM359.698 235.9H384.548C398.548 235.9 409.514 232.867 417.448 226.8C425.614 220.5 429.698 211.167 429.698 198.8C429.698 186.667 425.848 177.567 418.148 171.5C410.681 165.433 399.714 162.4 385.248 162.4C380.348 162.4 375.798 162.633 371.598 163.1C367.398 163.333 363.431 163.8 359.698 164.5V235.9Z" fill="white"/>
</mask>
<g mask="url(#mask0_4_5)">
<path d="M500 0L0 0L0 500H500V0Z" fill="url(#paint0_linear_4_5)"/>
</g>
</g>
<defs>
<linearGradient id="paint0_linear_4_5" x1="60.5975" y1="427.45" x2="312.906" y2="377.022" gradientUnits="userSpaceOnUse">
<stop stop-color="#439DDF"/>
<stop offset="0.524208" stop-color="#4F87ED"/>
<stop offset="0.781452" stop-color="#9476C5"/>
<stop offset="0.888252" stop-color="#BC688E"/>
<stop offset="1" stop-color="#D6645D"/>
</linearGradient>
<clipPath id="clip0_4_5">
<rect width="500" height="500" fill="white"/>
</clipPath>
</defs>
</svg>
