<svg width="1223" height="133" viewBox="0 0 1223 133" fill="none" xmlns="http://www.w3.org/2000/svg">
<g clip-path="url(#clip0_3_4)">
<mask id="mask0_3_4" style="mask-type:alpha" maskUnits="userSpaceOnUse" x="21" y="15" width="1187" height="90">
<path d="M71.88 83.416C71.0267 84.0133 69.9173 84.568 68.552 85.08C67.1867 85.5067 65.608 85.72 63.816 85.72C61.5973 85.72 59.6773 85.4213 58.056 84.824C56.52 84.2267 55.496 83.2453 54.984 81.88C51.5707 73.2613 48.6693 65.88 46.28 59.736C43.8907 53.5067 41.9707 48.216 40.52 43.864H39.88C39.624 49.5813 39.368 54.872 39.112 59.736C38.9413 64.5147 38.7707 69.1653 38.6 73.688C38.4293 78.1253 38.216 82.7333 37.96 87.512C37.7893 92.2053 37.5333 97.2827 37.192 102.744C36.424 103 35.3573 103.256 33.992 103.512C32.712 103.768 31.3467 103.896 29.896 103.896C27.1653 103.896 25.032 103.384 23.496 102.36C22.0453 101.336 21.32 99.7147 21.32 97.496C21.32 95.8747 21.4053 93.2293 21.576 89.56C21.832 85.8053 22.088 81.4533 22.344 76.504C22.6853 71.4693 23.0267 66.136 23.368 60.504C23.7093 54.872 24.0507 49.3253 24.392 43.864C24.8187 38.4027 25.2027 33.4107 25.544 28.888C26.2267 28.0347 27.464 27.1813 29.256 26.328C31.1333 25.3893 33.5227 24.92 36.424 24.92C39.752 24.92 42.3973 25.4747 44.36 26.584C46.408 27.608 47.9013 29.3573 48.84 31.832C50.4613 35.3307 52.0827 39.2987 53.704 43.736C55.4107 48.088 57.0747 52.4827 58.696 56.92C60.4027 61.3573 61.9813 65.4107 63.432 69.08H63.944C66.8453 61.0587 69.704 53.2933 72.52 45.784C75.4213 38.1893 77.896 31.832 79.944 26.712C81.0533 26.2 82.4187 25.7733 84.04 25.432C85.6613 25.0907 87.3253 24.92 89.032 24.92C92.1893 24.92 94.7067 25.3893 96.584 26.328C98.5467 27.2667 99.6987 28.6747 100.04 30.552C100.381 32.088 100.765 34.6053 101.192 38.104C101.619 41.6027 102.045 45.6987 102.472 50.392C102.899 55 103.283 59.8213 103.624 64.856C104.051 69.8907 104.435 74.84 104.776 79.704C105.203 84.4827 105.544 88.8347 105.8 92.76C106.056 96.6 106.227 99.6293 106.312 101.848C105.203 102.531 104.008 103.043 102.728 103.384C101.533 103.725 100.04 103.896 98.248 103.896C96.0293 103.896 94.0667 103.469 92.36 102.616C90.7387 101.677 89.8427 99.9707 89.672 97.496C89.2453 90.2427 88.8613 83.288 88.52 76.632C88.264 69.976 88.008 63.8747 87.752 58.328C87.5813 52.7813 87.368 48.1307 87.112 44.376H86.6C85.2347 48.3013 83.3573 53.3787 80.968 59.608C78.5787 65.752 75.5493 73.688 71.88 83.416ZM146 104.92C137.552 104.92 130.853 103.256 125.904 99.928C120.955 96.6 118.48 91.6933 118.48 85.208C118.48 79.4907 120.272 75.1387 123.856 72.152C127.525 69.08 132.816 67.2027 139.728 66.52L157.264 64.728V62.424C157.264 59.096 156.069 56.7067 153.68 55.256C151.291 53.72 148.005 52.952 143.824 52.952C140.496 52.952 137.253 53.3787 134.096 54.232C130.939 55.0853 128.123 56.0667 125.648 57.176C124.709 56.4933 123.899 55.5547 123.216 54.36C122.619 53.1653 122.32 51.928 122.32 50.648C122.32 47.4907 124.027 45.144 127.44 43.608C129.829 42.584 132.603 41.816 135.76 41.304C139.003 40.792 142.245 40.536 145.488 40.536C153.851 40.536 160.507 42.328 165.456 45.912C170.491 49.4107 173.008 54.9573 173.008 62.552V92.12C173.008 94.168 172.496 95.7893 171.472 96.984C170.533 98.1787 169.253 99.2453 167.632 100.184C165.243 101.549 162.213 102.659 158.544 103.512C154.875 104.451 150.693 104.92 146 104.92ZM146 92.632C148.475 92.632 150.736 92.376 152.784 91.864C154.832 91.352 156.325 90.7973 157.264 90.2V75.992L144.848 77.144C141.435 77.4 138.832 78.168 137.04 79.448C135.248 80.6427 134.352 82.4347 134.352 84.824C134.352 87.2133 135.291 89.1333 137.168 90.584C139.045 91.9493 141.989 92.632 146 92.632ZM205.195 57.048V74.328H188.939V55.768C188.939 53.464 189.451 51.5867 190.475 50.136C191.499 48.6 192.992 47.2347 194.955 46.04C197.6 44.4187 200.886 43.096 204.811 42.072C208.736 41.048 212.918 40.536 217.355 40.536C225.462 40.536 229.515 43.0533 229.515 48.088C229.515 49.2827 229.344 50.4347 229.003 51.544C228.662 52.568 228.235 53.4213 227.723 54.104C226.87 53.9333 225.803 53.8053 224.523 53.72C223.243 53.5493 221.92 53.464 220.555 53.464C217.483 53.464 214.624 53.8053 211.979 54.488C209.334 55.1707 207.072 56.024 205.195 57.048ZM188.939 69.208L205.195 69.976V102.872C204.512 103.043 203.488 103.256 202.123 103.512C200.843 103.768 199.392 103.896 197.771 103.896C194.784 103.896 192.566 103.341 191.115 102.232C189.664 101.123 188.939 99.16 188.939 96.344V69.208ZM263.494 77.656L252.23 70.104L281.158 41.304C284.486 41.304 287.089 42.0293 288.966 43.48C290.929 44.9307 291.91 46.7653 291.91 48.984C291.91 50.9467 291.27 52.6533 289.99 54.104C288.795 55.5547 286.875 57.3893 284.23 59.608L263.494 77.656ZM252.614 72.536L265.158 66.648L294.854 94.552C294.598 97.5387 293.702 99.8853 292.166 101.592C290.715 103.213 288.625 104.024 285.894 104.024C283.931 104.024 282.139 103.512 280.518 102.488C278.897 101.464 277.147 99.8427 275.27 97.624L252.614 72.536ZM240.07 68.952L256.326 69.72V102.872C255.643 103.043 254.619 103.256 253.254 103.512C251.974 103.768 250.523 103.896 248.902 103.896C245.915 103.896 243.697 103.341 242.246 102.232C240.795 101.123 240.07 99.16 240.07 96.344V68.952ZM256.326 78.04L240.07 77.272V19.8C240.753 19.544 241.777 19.3307 243.142 19.16C244.507 18.904 245.958 18.776 247.494 18.776C250.566 18.776 252.785 19.3307 254.15 20.44C255.601 21.464 256.326 23.4267 256.326 26.328V78.04ZM344.753 89.432V49.496L360.881 49.368V91.224C360.881 93.1013 360.454 94.68 359.601 95.96C358.833 97.24 357.553 98.392 355.761 99.416C353.713 100.781 350.897 102.019 347.313 103.128C343.729 104.323 339.676 104.92 335.153 104.92C328.326 104.92 322.396 103.768 317.361 101.464C312.412 99.0747 308.572 95.5333 305.841 90.84C303.11 86.0613 301.745 80.088 301.745 72.92C301.745 65.4107 303.11 59.3093 305.841 54.616C308.572 49.8373 312.284 46.296 316.977 43.992C321.756 41.688 327.004 40.536 332.721 40.536C335.878 40.536 338.737 40.92 341.297 41.688C343.942 42.3707 346.033 43.2667 347.569 44.376V58.072C346.204 56.8773 344.454 55.8107 342.321 54.872C340.188 53.848 337.67 53.336 334.769 53.336C331.612 53.336 328.753 54.0187 326.193 55.384C323.718 56.7493 321.756 58.8827 320.305 61.784C318.854 64.6 318.129 68.3547 318.129 73.048C318.129 79.5333 319.622 84.312 322.609 87.384C325.681 90.3707 329.82 91.864 335.025 91.864C337.244 91.864 339.121 91.608 340.657 91.096C342.278 90.584 343.644 90.0293 344.753 89.432ZM360.881 52.824H344.753V19.8C345.436 19.544 346.417 19.3307 347.697 19.16C349.062 18.904 350.513 18.776 352.049 18.776C355.121 18.776 357.34 19.3307 358.705 20.44C360.156 21.464 360.881 23.4267 360.881 26.328V52.824ZM437.09 72.664C437.09 79.2347 435.81 84.952 433.25 89.816C430.69 94.5947 427.063 98.3067 422.37 100.952C417.677 103.597 412.13 104.92 405.73 104.92C399.415 104.92 393.869 103.64 389.09 101.08C384.397 98.4347 380.77 94.68 378.21 89.816C375.65 84.952 374.37 79.2347 374.37 72.664C374.37 66.008 375.65 60.2907 378.21 55.512C380.855 50.7333 384.525 47.064 389.218 44.504C393.997 41.8587 399.501 40.536 405.73 40.536C412.045 40.536 417.549 41.8587 422.242 44.504C426.935 47.1493 430.562 50.8613 433.122 55.64C435.767 60.4187 437.09 66.0933 437.09 72.664ZM405.73 53.336C401.207 53.336 397.581 55.0427 394.85 58.456C392.205 61.8693 390.882 66.6053 390.882 72.664C390.882 78.808 392.162 83.5867 394.722 87C397.367 90.328 401.037 91.992 405.73 91.992C410.423 91.992 414.05 90.2853 416.61 86.872C419.255 83.4587 420.578 78.7227 420.578 72.664C420.578 66.6053 419.255 61.8693 416.61 58.456C413.965 55.0427 410.338 53.336 405.73 53.336ZM490.652 63.704C489.457 68.312 488.092 73.0053 486.556 77.784C485.105 82.5627 483.697 87.0427 482.332 91.224C481.052 95.4053 479.9 98.8613 478.876 101.592C478.023 102.275 476.828 102.829 475.292 103.256C473.841 103.768 472.007 104.024 469.788 104.024C467.399 104.024 465.223 103.683 463.26 103C461.383 102.232 460.145 101.123 459.548 99.672C458.695 97.9653 457.756 95.5333 456.732 92.376C455.793 89.2187 454.769 85.592 453.66 81.496C452.636 77.3147 451.569 73.0053 450.46 68.568C449.436 64.1307 448.497 59.864 447.644 55.768C446.791 51.5867 446.065 47.832 445.468 44.504C446.321 43.6507 447.473 42.8827 448.924 42.2C450.46 41.432 452.167 41.048 454.044 41.048C456.348 41.048 458.183 41.6027 459.548 42.712C460.913 43.8213 461.809 45.6987 462.236 48.344C463.004 53.464 463.772 58.2 464.54 62.552C465.393 66.904 466.161 70.8293 466.844 74.328C467.527 77.8267 468.124 80.8133 468.636 83.288C469.233 85.7627 469.703 87.64 470.044 88.92H470.556C471.068 86.9573 471.921 83.8427 473.116 79.576C474.311 75.3093 475.719 70.4453 477.34 64.984C478.961 59.4373 480.583 53.8907 482.204 48.344C483.399 47.6613 484.636 47.1493 485.916 46.808C487.281 46.3813 488.86 46.168 490.652 46.168C492.956 46.168 494.876 46.552 496.412 47.32C498.033 48.088 499.1 49.24 499.612 50.776C501.319 56.152 502.897 61.4 504.348 66.52C505.799 71.64 507.079 76.1627 508.188 80.088C509.383 84.0133 510.193 86.9573 510.62 88.92H511.26C512.711 81.8373 514.204 74.3707 515.74 66.52C517.361 58.6693 518.727 50.8187 519.836 42.968C521.969 41.688 524.401 41.048 527.132 41.048C529.351 41.048 531.143 41.56 532.508 42.584C533.959 43.5227 534.684 45.1867 534.684 47.576C534.684 48.6853 534.428 50.6053 533.916 53.336C533.489 55.9813 532.849 59.0533 531.996 62.552C531.228 66.0507 530.332 69.7627 529.308 73.688C528.284 77.528 527.26 81.2827 526.236 84.952C525.212 88.536 524.231 91.8213 523.292 94.808C522.353 97.7093 521.543 99.9707 520.86 101.592C520.092 102.275 518.812 102.829 517.02 103.256C515.228 103.768 513.308 104.024 511.26 104.024C505.884 104.024 502.684 102.701 501.66 100.056C500.807 97.496 499.697 94.2533 498.332 90.328C497.052 86.4027 495.729 82.136 494.364 77.528C492.999 72.8347 491.761 68.2267 490.652 63.704ZM603.259 63.448V75.864H587.131V63.96C587.131 60.2907 586.064 57.6027 583.931 55.896C581.798 54.1893 578.982 53.336 575.483 53.336C573.008 53.336 570.747 53.6773 568.699 54.36C566.651 54.9573 564.816 55.6827 563.195 56.536V75.864H546.939V55.256C546.939 53.208 547.366 51.544 548.219 50.264C549.072 48.984 550.395 47.7467 552.187 46.552C554.747 44.9307 558.032 43.5227 562.043 42.328C566.139 41.1333 570.662 40.536 575.611 40.536C584.4 40.536 591.184 42.4987 595.963 46.424C600.827 50.264 603.259 55.9387 603.259 63.448ZM546.939 69.592H563.195V102.872C562.512 103.043 561.488 103.256 560.123 103.512C558.843 103.768 557.392 103.896 555.771 103.896C552.784 103.896 550.566 103.341 549.115 102.232C547.664 101.123 546.939 99.16 546.939 96.344V69.592ZM587.131 69.592H603.259V102.872C602.576 103.043 601.552 103.256 600.187 103.512C598.907 103.768 597.499 103.896 595.963 103.896C592.891 103.896 590.63 103.341 589.179 102.232C587.814 101.123 587.131 99.16 587.131 96.344V69.592ZM646.981 77.144V31.832C646.981 30.2107 647.408 28.9733 648.261 28.12C649.114 27.2667 650.309 26.584 651.845 26.072C654.49 25.1333 657.69 24.4933 661.445 24.152C665.285 23.7253 668.826 23.512 672.069 23.512C683.333 23.512 691.781 25.944 697.413 30.808C703.13 35.5867 705.989 42.072 705.989 50.264C705.989 55.64 704.709 60.376 702.149 64.472C699.674 68.4827 696.048 71.5973 691.269 73.816C686.49 76.0347 680.602 77.144 673.605 77.144H646.981ZM655.813 103.896C652.656 103.896 650.394 103.299 649.029 102.104C647.664 100.909 646.981 98.904 646.981 96.088V69.72H663.621V102.872C662.853 103.043 661.744 103.256 660.293 103.512C658.928 103.768 657.434 103.896 655.813 103.896ZM663.493 63.832H672.581C677.701 63.832 681.712 62.7227 684.613 60.504C687.6 58.2 689.093 54.7867 689.093 50.264C689.093 45.8267 687.685 42.4987 684.869 40.28C682.138 38.0613 678.128 36.952 672.837 36.952C671.045 36.952 669.381 37.0373 667.845 37.208C666.309 37.2933 664.858 37.464 663.493 37.72V63.832ZM732.445 57.048V74.328H716.189V55.768C716.189 53.464 716.701 51.5867 717.725 50.136C718.749 48.6 720.242 47.2347 722.205 46.04C724.85 44.4187 728.136 43.096 732.061 42.072C735.986 41.048 740.168 40.536 744.605 40.536C752.712 40.536 756.765 43.0533 756.765 48.088C756.765 49.2827 756.594 50.4347 756.253 51.544C755.912 52.568 755.485 53.4213 754.973 54.104C754.12 53.9333 753.053 53.8053 751.773 53.72C750.493 53.5493 749.17 53.464 747.805 53.464C744.733 53.464 741.874 53.8053 739.229 54.488C736.584 55.1707 734.322 56.024 732.445 57.048ZM716.189 69.208L732.445 69.976V102.872C731.762 103.043 730.738 103.256 729.373 103.512C728.093 103.768 726.642 103.896 725.021 103.896C722.034 103.896 719.816 103.341 718.365 102.232C716.914 101.123 716.189 99.16 716.189 96.344V69.208ZM772.485 80.856L771.717 69.464L805.765 64.472C805.509 61.3147 804.272 58.584 802.053 56.28C799.834 53.8907 796.677 52.696 792.581 52.696C788.229 52.696 784.645 54.1893 781.829 57.176C779.013 60.1627 777.562 64.4293 777.477 69.976L777.861 76.888C778.544 82.1787 780.592 86.104 784.005 88.664C787.504 91.1387 791.856 92.376 797.061 92.376C800.645 92.376 803.973 91.864 807.045 90.84C810.117 89.7307 812.549 88.5787 814.341 87.384C815.536 88.0667 816.517 89.0053 817.285 90.2C818.053 91.3947 818.437 92.6747 818.437 94.04C818.437 96.2587 817.456 98.2213 815.493 99.928C813.53 101.549 810.842 102.787 807.429 103.64C804.101 104.493 800.304 104.92 796.037 104.92C789.381 104.92 783.493 103.683 778.373 101.208C773.338 98.7333 769.37 95.064 766.469 90.2C763.653 85.2507 762.245 79.192 762.245 72.024C762.245 66.7333 763.056 62.1253 764.677 58.2C766.298 54.1893 768.517 50.904 771.333 48.344C774.149 45.6987 777.349 43.736 780.933 42.456C784.602 41.176 788.485 40.536 792.581 40.536C798.213 40.536 803.162 41.688 807.429 43.992C811.696 46.2107 815.024 49.3253 817.413 53.336C819.802 57.3467 820.997 61.9547 820.997 67.16C820.997 69.5493 820.357 71.3413 819.077 72.536C817.882 73.7307 816.176 74.4987 813.957 74.84L772.485 80.856ZM880.165 41.048C882.384 41.048 884.218 41.56 885.669 42.584C887.205 43.608 887.973 45.3147 887.973 47.704C887.973 49.0693 887.504 51.3733 886.565 54.616C885.712 57.7733 884.56 61.4853 883.109 65.752C881.658 69.9333 880.037 74.2853 878.245 78.808C876.538 83.3307 874.789 87.5973 872.997 91.608C871.29 95.6187 869.712 98.9893 868.261 101.72C867.493 102.317 866.213 102.829 864.421 103.256C862.714 103.768 860.837 104.024 858.789 104.024C856.4 104.024 854.309 103.683 852.517 103C850.725 102.317 849.445 101.293 848.677 99.928C847.738 98.2213 846.544 95.7467 845.093 92.504C843.728 89.176 842.234 85.464 840.613 81.368C839.077 77.1867 837.498 72.8773 835.877 68.44C834.341 64.0027 832.89 59.736 831.525 55.64C830.16 51.4587 829.093 47.832 828.325 44.76C829.178 43.736 830.373 42.8827 831.909 42.2C833.445 41.432 835.109 41.048 836.901 41.048C839.12 41.048 840.954 41.56 842.405 42.584C843.856 43.608 844.922 45.4427 845.605 48.088L852.133 69.208C852.816 71.4267 853.541 73.816 854.309 76.376C855.162 78.936 855.973 81.4107 856.741 83.8C857.594 86.104 858.234 88.024 858.661 89.56H859.173C861.733 82.136 864.165 74.4133 866.469 66.392C868.858 58.3707 870.949 50.52 872.741 42.84C874.874 41.6453 877.349 41.048 880.165 41.048ZM899.299 24.28C899.299 21.72 900.152 19.5867 901.859 17.88C903.651 16.1733 905.912 15.32 908.643 15.32C911.374 15.32 913.592 16.1733 915.299 17.88C917.091 19.5867 917.987 21.72 917.987 24.28C917.987 26.84 917.091 29.016 915.299 30.808C913.592 32.5147 911.374 33.368 908.643 33.368C905.912 33.368 903.651 32.5147 901.859 30.808C900.152 29.016 899.299 26.84 899.299 24.28ZM900.579 69.208H916.707V102.872C916.024 103.043 915 103.256 913.635 103.512C912.355 103.768 910.947 103.896 909.411 103.896C906.339 103.896 904.078 103.341 902.627 102.232C901.262 101.123 900.579 99.16 900.579 96.344V69.208ZM916.707 77.528H900.579V42.84C901.262 42.6693 902.243 42.456 903.523 42.2C904.888 41.944 906.339 41.816 907.875 41.816C910.947 41.816 913.166 42.3707 914.531 43.48C915.982 44.504 916.707 46.4667 916.707 49.368V77.528ZM940.735 80.856L939.967 69.464L974.015 64.472C973.759 61.3147 972.522 58.584 970.303 56.28C968.084 53.8907 964.927 52.696 960.831 52.696C956.479 52.696 952.895 54.1893 950.079 57.176C947.263 60.1627 945.812 64.4293 945.727 69.976L946.111 76.888C946.794 82.1787 948.842 86.104 952.255 88.664C955.754 91.1387 960.106 92.376 965.311 92.376C968.895 92.376 972.223 91.864 975.295 90.84C978.367 89.7307 980.799 88.5787 982.591 87.384C983.786 88.0667 984.767 89.0053 985.535 90.2C986.303 91.3947 986.687 92.6747 986.687 94.04C986.687 96.2587 985.706 98.2213 983.743 99.928C981.78 101.549 979.092 102.787 975.679 103.64C972.351 104.493 968.554 104.92 964.287 104.92C957.631 104.92 951.743 103.683 946.623 101.208C941.588 98.7333 937.62 95.064 934.719 90.2C931.903 85.2507 930.495 79.192 930.495 72.024C930.495 66.7333 931.306 62.1253 932.927 58.2C934.548 54.1893 936.767 50.904 939.583 48.344C942.399 45.6987 945.599 43.736 949.183 42.456C952.852 41.176 956.735 40.536 960.831 40.536C966.463 40.536 971.412 41.688 975.679 43.992C979.946 46.2107 983.274 49.3253 985.663 53.336C988.052 57.3467 989.247 61.9547 989.247 67.16C989.247 69.5493 988.607 71.3413 987.327 72.536C986.132 73.7307 984.426 74.4987 982.207 74.84L940.735 80.856ZM1042.53 63.704C1041.33 68.312 1039.97 73.0053 1038.43 77.784C1036.98 82.5627 1035.57 87.0427 1034.21 91.224C1032.93 95.4053 1031.78 98.8613 1030.75 101.592C1029.9 102.275 1028.7 102.829 1027.17 103.256C1025.72 103.768 1023.88 104.024 1021.66 104.024C1019.27 104.024 1017.1 103.683 1015.14 103C1013.26 102.232 1012.02 101.123 1011.42 99.672C1010.57 97.9653 1009.63 95.5333 1008.61 92.376C1007.67 89.2187 1006.64 85.592 1005.54 81.496C1004.51 77.3147 1003.44 73.0053 1002.34 68.568C1001.31 64.1307 1000.37 59.864 999.519 55.768C998.666 51.5867 997.94 47.832 997.343 44.504C998.196 43.6507 999.348 42.8827 1000.8 42.2C1002.34 41.432 1004.04 41.048 1005.92 41.048C1008.22 41.048 1010.06 41.6027 1011.42 42.712C1012.79 43.8213 1013.68 45.6987 1014.11 48.344C1014.88 53.464 1015.65 58.2 1016.42 62.552C1017.27 66.904 1018.04 70.8293 1018.72 74.328C1019.4 77.8267 1020 80.8133 1020.51 83.288C1021.11 85.7627 1021.58 87.64 1021.92 88.92H1022.43C1022.94 86.9573 1023.8 83.8427 1024.99 79.576C1026.19 75.3093 1027.59 70.4453 1029.22 64.984C1030.84 59.4373 1032.46 53.8907 1034.08 48.344C1035.27 47.6613 1036.51 47.1493 1037.79 46.808C1039.16 46.3813 1040.74 46.168 1042.53 46.168C1044.83 46.168 1046.75 46.552 1048.29 47.32C1049.91 48.088 1050.98 49.24 1051.49 50.776C1053.19 56.152 1054.77 61.4 1056.22 66.52C1057.67 71.64 1058.95 76.1627 1060.06 80.088C1061.26 84.0133 1062.07 86.9573 1062.5 88.92H1063.14C1064.59 81.8373 1066.08 74.3707 1067.62 66.52C1069.24 58.6693 1070.6 50.8187 1071.71 42.968C1073.84 41.688 1076.28 41.048 1079.01 41.048C1081.23 41.048 1083.02 41.56 1084.38 42.584C1085.83 43.5227 1086.56 45.1867 1086.56 47.576C1086.56 48.6853 1086.3 50.6053 1085.79 53.336C1085.36 55.9813 1084.72 59.0533 1083.87 62.552C1083.1 66.0507 1082.21 69.7627 1081.18 73.688C1080.16 77.528 1079.14 81.2827 1078.11 84.952C1077.09 88.536 1076.11 91.8213 1075.17 94.808C1074.23 97.7093 1073.42 99.9707 1072.74 101.592C1071.97 102.275 1070.69 102.829 1068.9 103.256C1067.1 103.768 1065.18 104.024 1063.14 104.024C1057.76 104.024 1054.56 102.701 1053.54 100.056C1052.68 97.496 1051.57 94.2533 1050.21 90.328C1048.93 86.4027 1047.6 82.136 1046.24 77.528C1044.87 72.8347 1043.64 68.2267 1042.53 63.704ZM1105.49 80.856L1104.72 69.464L1138.77 64.472C1138.51 61.3147 1137.27 58.584 1135.05 56.28C1132.83 53.8907 1129.68 52.696 1125.58 52.696C1121.23 52.696 1117.65 54.1893 1114.83 57.176C1112.01 60.1627 1110.56 64.4293 1110.48 69.976L1110.86 76.888C1111.54 82.1787 1113.59 86.104 1117.01 88.664C1120.5 91.1387 1124.86 92.376 1130.06 92.376C1133.65 92.376 1136.97 91.864 1140.05 90.84C1143.12 89.7307 1145.55 88.5787 1147.34 87.384C1148.54 88.0667 1149.52 89.0053 1150.29 90.2C1151.05 91.3947 1151.44 92.6747 1151.44 94.04C1151.44 96.2587 1150.46 98.2213 1148.49 99.928C1146.53 101.549 1143.84 102.787 1140.43 103.64C1137.1 104.493 1133.3 104.92 1129.04 104.92C1122.38 104.92 1116.49 103.683 1111.37 101.208C1106.34 98.7333 1102.37 95.064 1099.47 90.2C1096.65 85.2507 1095.25 79.192 1095.25 72.024C1095.25 66.7333 1096.06 62.1253 1097.68 58.2C1099.3 54.1893 1101.52 50.904 1104.33 48.344C1107.15 45.6987 1110.35 43.736 1113.93 42.456C1117.6 41.176 1121.49 40.536 1125.58 40.536C1131.21 40.536 1136.16 41.688 1140.43 43.992C1144.7 46.2107 1148.02 49.3253 1150.41 53.336C1152.8 57.3467 1154 61.9547 1154 67.16C1154 69.5493 1153.36 71.3413 1152.08 72.536C1150.88 73.7307 1149.18 74.4987 1146.96 74.84L1105.49 80.856ZM1182.95 57.048V74.328H1166.69V55.768C1166.69 53.464 1167.2 51.5867 1168.23 50.136C1169.25 48.6 1170.74 47.2347 1172.71 46.04C1175.35 44.4187 1178.64 43.096 1182.56 42.072C1186.49 41.048 1190.67 40.536 1195.11 40.536C1203.21 40.536 1207.27 43.0533 1207.27 48.088C1207.27 49.2827 1207.09 50.4347 1206.75 51.544C1206.41 52.568 1205.99 53.4213 1205.47 54.104C1204.62 53.9333 1203.55 53.8053 1202.27 53.72C1200.99 53.5493 1199.67 53.464 1198.31 53.464C1195.23 53.464 1192.37 53.8053 1189.73 54.488C1187.08 55.1707 1184.82 56.024 1182.95 57.048ZM1166.69 69.208L1182.95 69.976V102.872C1182.26 103.043 1181.24 103.256 1179.87 103.512C1178.59 103.768 1177.14 103.896 1175.52 103.896C1172.53 103.896 1170.32 103.341 1168.87 102.232C1167.41 101.123 1166.69 99.16 1166.69 96.344V69.208Z" fill="white"/>
</mask>
<g mask="url(#mask0_3_4)">
<path d="M2038.5 35.0797L107.042 -566.573L-277.504 667.92L1653.96 1269.57L2038.5 35.0797Z" fill="url(#paint0_linear_3_4)"/>
</g>
</g>
<defs>
<linearGradient id="paint0_linear_3_4" x1="12.3771" y1="561.713" x2="1025.61" y2="560.596" gradientUnits="userSpaceOnUse">
<stop stop-color="#439DDF"/>
<stop offset="0.524208" stop-color="#4F87ED"/>
<stop offset="0.781452" stop-color="#9476C5"/>
<stop offset="0.888252" stop-color="#BC688E"/>
<stop offset="1" stop-color="#D6645D"/>
</linearGradient>
<clipPath id="clip0_3_4">
<rect width="1223" height="133" fill="white"/>
</clipPath>
</defs>
</svg>
